<svg width="1180" height="552" viewBox="0 0 1180 552" fill="none" xmlns="http://www.w3.org/2000/svg">
<path d="M274.845 0.5H1170C1175.25 0.500005 1179.5 4.7533 1179.5 10V458.428C1179.5 463.663 1175.26 467.912 1170.03 467.927L976.08 468.488C973.35 468.496 970.729 469.567 968.775 471.475L889.564 548.798C887.79 550.53 885.408 551.5 882.929 551.5H10C4.7533 551.5 0.5 547.247 0.5 542V93.9443L0.512695 93.457C0.765375 88.457 4.88477 84.4726 9.94727 84.4443L175.19 83.5215C177.768 83.5071 180.251 82.5442 182.165 80.8174L268.48 2.94629C270.226 1.37157 272.494 0.5 274.845 0.5Z" fill="white" stroke="black"/>
</svg>
